<?xml version="1.0" encoding="UTF-8"?>
<svg version="1.1" xmlns="http://www.w3.org/2000/svg" width="100" height="100">
<path d="M0 0 C1.65 0.66 3.3 1.32 5 2 C4.41559503 8.21502444 2.5082125 13.5752505 0.2890625 19.38671875 C-0.0797403 20.36614944 -0.44854309 21.34558014 -0.82852173 22.35469055 C-1.60677697 24.41593167 -2.38861671 26.47582256 -3.17382812 28.53442383 C-4.37361342 31.68386024 -5.55863492 34.83857336 -6.7421875 37.99414062 C-7.50172742 40.00033216 -8.2621152 42.00620293 -9.0234375 44.01171875 C-9.37667084 44.9534343 -9.72990417 45.89514984 -10.09384155 46.86540222 C-10.43074005 47.74344009 -10.76763855 48.62147797 -11.11474609 49.52612305 C-11.40707123 50.29554733 -11.69939636 51.06497162 -12.00057983 51.85771179 C-13.07891918 54.16916572 -14.40612349 56.01610922 -16 58 C-17.65 57.34 -19.3 56.68 -21 56 C-20.41559503 49.78497556 -18.5082125 44.4247495 -16.2890625 38.61328125 C-15.9202597 37.63385056 -15.55145691 36.65441986 -15.17147827 35.64530945 C-14.39322303 33.58406833 -13.61138329 31.52417744 -12.82617188 29.46557617 C-11.62638658 26.31613976 -10.44136508 23.16142664 -9.2578125 20.00585938 C-8.49827258 17.99966784 -7.7378848 15.99379707 -6.9765625 13.98828125 C-6.62332916 13.0465657 -6.27009583 12.10485016 -5.90615845 11.13459778 C-5.56925995 10.25655991 -5.23236145 9.37852203 -4.88525391 8.47387695 C-4.59292877 7.70445267 -4.30060364 6.93502838 -3.99942017 6.14228821 C-2.92108082 3.83083428 -1.59387651 1.98389078 0 0 Z " fill="#FFFFFF" transform="translate(58,21)"/>
<path d="M0 0 C6.14093315 0.41689116 9.26729214 4.60581161 13.375 8.75 C14.12394531 9.46671875 14.87289062 10.1834375 15.64453125 10.921875 C16.34707031 11.623125 17.04960938 12.324375 17.7734375 13.046875 C18.73902588 14.00352051 18.73902588 14.00352051 19.72412109 14.97949219 C21 17 21 17 20.91552734 19.49560547 C19.24270965 24.07154251 15.65386857 27.00109506 12.25 30.375 C11.53328125 31.12394531 10.8165625 31.87289062 10.078125 32.64453125 C9.376875 33.34707031 8.675625 34.04960938 7.953125 34.7734375 C7.31536133 35.41716309 6.67759766 36.06088867 6.02050781 36.72412109 C4 38 4 38 1.25292969 37.70166016 C0.50946289 37.4701123 -0.23400391 37.23856445 -1 37 C-1.495 35.515 -1.495 35.515 -2 34 C-0.77734375 32.16796875 -0.77734375 32.16796875 1.0625 30.1875 C1.70445313 29.49011719 2.34640625 28.79273437 3.0078125 28.07421875 C5.63376643 25.34013731 8.28642343 22.64739178 11 20 C9.00053223 15.06417098 5.0177443 12.01670052 1.21484375 8.4375 C-1.88930608 5.02129278 -1.88930608 5.02129278 -2 2 C-1.34 1.34 -0.68 0.68 0 0 Z " fill="#FFFFFF" transform="translate(73,31)"/>
<path d="M0 0 C0.7434668 0.23154785 1.48693359 0.4630957 2.25292969 0.70166016 C2.58292969 1.69166016 2.91292969 2.68166016 3.25292969 3.70166016 C2.03027344 5.53369141 2.03027344 5.53369141 0.19042969 7.51416016 C-0.45152344 8.21154297 -1.09347656 8.90892578 -1.75488281 9.62744141 C-4.38083674 12.36152285 -7.03349374 15.05426838 -9.74707031 17.70166016 C-7.74760254 22.63748918 -3.76481461 25.68495964 0.03808594 29.26416016 C3.14223577 32.68036738 3.14223577 32.68036738 3.25292969 35.70166016 C2.59292969 36.36166016 1.93292969 37.02166016 1.25292969 37.70166016 C-4.88800346 37.28476899 -8.01436246 33.09584854 -12.12207031 28.95166016 C-12.87101563 28.23494141 -13.61996094 27.51822266 -14.39160156 26.77978516 C-15.09414062 26.07853516 -15.79667969 25.37728516 -16.52050781 24.65478516 C-17.1642334 24.01702148 -17.80795898 23.37925781 -18.47119141 22.72216797 C-19.74707031 20.70166016 -19.74707031 20.70166016 -19.66259766 18.20605469 C-17.98977996 13.63011765 -14.40093888 10.7005651 -10.99707031 7.32666016 C-10.28035156 6.57771484 -9.56363281 5.82876953 -8.82519531 5.05712891 C-7.77332031 4.00332031 -7.77332031 4.00332031 -6.70019531 2.92822266 C-6.06243164 2.28449707 -5.42466797 1.64077148 -4.76757812 0.97753906 C-2.74707031 -0.29833984 -2.74707031 -0.29833984 0 0 Z " fill="#FFFFFF" transform="translate(25.7470703125,31.29833984375)"/>
</svg>
